<?xml version="1.0" encoding="utf-8"?>
<!-- Generator: Adobe Illustrator 23.0.0, SVG Export Plug-In . SVG Version: 6.00 Build 0)  -->
<svg version="1.1" id="Слой_1" xmlns="http://www.w3.org/2000/svg" xmlns:xlink="http://www.w3.org/1999/xlink" x="0px" y="0px"
	 viewBox="0 0 226.7 97.7" style="enable-background:new 0 0 226.7 97.7;" xml:space="preserve">
<style type="text/css">
	.st0{fill:#FF8200;}
</style>
<g>
	<g>
		<path class="st0" d="M12.4,75.7c-0.2,0.6-0.5,1.3-0.8,2s-0.7,1.5-1.2,2.2s-1,1.4-1.6,2S7.6,83,6.9,83.4S5.5,84,4.8,84.1
			S3.3,84,2.5,83.6c-0.9-0.5-1.5-1.3-1.8-2.3S0.3,79.2,0.4,78s0.4-2.3,0.8-3.5c0.4-1.1,0.8-2.1,1.3-2.8C3,70.8,3.7,70,4.4,69.2
			s1.5-1.4,2.3-2c0.8-0.5,1.6-0.9,2.4-1.2c0.8-0.2,1.5-0.3,2.2-0.1l-0.4-8.4c0.1-0.2,0.3-0.3,0.6-0.4s0.7-0.2,1.1-0.2
			c0.4,0,0.7,0.1,1.1,0.2s0.5,0.4,0.6,0.9c0.1,3.1,0.3,6.9,0.6,11.3c0.4,4.4,0.9,9.1,1.7,14.2c-0.1,0.3-0.4,0.6-0.7,0.7
			c-0.4,0.1-0.7,0.2-1.1,0.2c-0.4,0-0.7,0-1-0.1s-0.5-0.2-0.5-0.3L12.4,75.7z M10.6,69.9c-0.4-0.5-1-0.7-1.7-0.4
			c-0.7,0.3-1.4,0.8-2.1,1.5s-1.3,1.6-1.9,2.7s-1.1,2.1-1.4,3.1S3,78.7,3,79.5s0.4,1.3,1,1.6c0.5,0.2,1.1,0.2,1.7-0.2
			c0.6-0.4,1.2-0.9,1.8-1.6s1.1-1.5,1.6-2.5c0.5-0.9,0.9-1.9,1.2-2.8s0.5-1.7,0.6-2.5C11,70.8,10.9,70.2,10.6,69.9z"/>
		<path class="st0" d="M35.7,72.6c-1,2.2-2.1,4-3.2,5.5c-1.1,1.5-2.3,2.7-3.3,3.6c-1.1,0.9-2.1,1.5-3.1,1.9s-1.8,0.6-2.4,0.5
			c-0.9,0-1.6-0.4-2.1-1s-0.8-1.3-1-2.2c-0.2-0.8-0.3-1.7-0.2-2.6c0-0.9,0.1-1.7,0.2-2.3c-0.4-0.2-0.8-0.5-0.9-0.8
			c-0.2-0.3-0.3-0.7-0.3-1s0-0.6,0.2-0.8c0.1-0.2,0.3-0.3,0.5-0.4s0.4-0.1,0.6-0.1s0.4,0,0.5-0.1c0.5-1.8,1-3.3,1.5-4.5
			s1.1-2.4,1.8-3.3c0.5-0.7,1.1-1.3,1.8-1.7c0.6-0.4,1.3-0.7,1.9-0.8s1.2-0.1,1.7,0s0.9,0.4,1.2,0.7c0.6,0.6,0.9,1.4,1,2.1
			c0.1,0.8,0,1.6-0.2,2.4s-0.6,1.6-1.1,2.4s-1.1,1.5-1.8,2.2c-0.4,0.4-0.8,0.7-1.2,1.1s-0.9,0.7-1.3,1s-0.9,0.6-1.3,0.8
			c-0.4,0.3-0.8,0.5-1.2,0.6c-0.1,0.5-0.2,1.1-0.3,1.6c-0.1,0.6-0.1,1.1,0,1.6c0,0.5,0.1,0.9,0.2,1.2c0.1,0.3,0.3,0.5,0.5,0.5
			c0.4,0.1,1-0.1,1.6-0.4s1.3-0.8,2.1-1.6s1.6-1.7,2.5-3s1.8-2.8,2.8-4.6c0.1-0.3,0.3-0.4,0.7-0.4c0.3,0,0.7,0,1,0.1
			s0.6,0.3,0.8,0.6C35.8,71.9,35.8,72.2,35.7,72.6z M24.3,72.3c0.3-0.1,0.7-0.4,1.3-0.9c0.6-0.4,1.1-0.9,1.6-1.5
			c0.3-0.3,0.6-0.7,0.8-1.1c0.3-0.4,0.5-0.8,0.7-1.2c0.2-0.4,0.2-0.7,0.2-1.1c0-0.3-0.1-0.6-0.4-0.7c-0.3-0.2-0.7-0.1-1.2,0.4
			s-0.9,1.1-1.3,1.9s-0.8,1.5-1.1,2.4C24.6,71.3,24.4,71.9,24.3,72.3z"/>
		<path class="st0" d="M45.5,82.5c0.5-0.4,1.1-0.9,1.8-1.5c0.7-0.7,1.3-1.3,1.9-2s1-1.3,1.3-1.9s0.4-1,0.1-1.2
			c-0.2-0.1-0.6-0.1-1.1-0.1c-0.5,0.1-1.2,0.1-1.9,0.2s-1.5,0.2-2.3,0.3c-0.8,0.1-1.6,0.1-2.4,0.1s-1.4-0.2-2-0.4
			c-0.6-0.2-1-0.6-1.2-1.1c-0.1-0.3-0.2-0.6-0.3-1s0-0.8,0-1.3c0.1-0.5,0.2-1,0.5-1.6c0.2-0.6,0.6-1.1,1.1-1.7
			c0.7-0.9,1.5-1.7,2.5-2.5c0.9-0.8,1.9-1.4,2.9-2s2-1,3.1-1.3c1-0.3,2.1-0.4,3.1-0.4c0.6,0,1.1,0.2,1.4,0.5s0.5,0.7,0.5,1.1
			s-0.1,0.7-0.3,1C54,66,53.6,66.1,53,66.1c-0.9-0.1-1.9,0-2.8,0.4c-1,0.3-1.8,0.7-2.7,1.3c-0.8,0.5-1.6,1.1-2.3,1.7
			s-1.2,1.2-1.6,1.7s-0.6,1-0.7,1.4s0.1,0.6,0.5,0.6c0.8,0.1,1.6,0,2.7-0.2c1-0.2,2-0.3,3.1-0.5c1-0.1,2-0.2,2.9-0.1
			s1.6,0.4,2.2,0.9c0.4,0.4,0.6,0.9,0.5,1.5c0,0.6-0.2,1.3-0.5,2s-0.8,1.5-1.3,2.3s-1.1,1.5-1.7,2.2s-1.1,1.3-1.7,1.9
			c-0.6,0.5-1,0.9-1.4,1.2c-0.2,0.3-0.5,0.5-0.9,0.4c-0.4,0-0.8-0.2-1.1-0.4c-0.3-0.3-0.6-0.6-0.7-0.9
			C45.1,83.1,45.1,82.8,45.5,82.5z"/>
		<path class="st0" d="M61.1,60.6c-0.6,0.1-1.1,0.1-1.5-0.1s-0.7-0.5-0.8-0.9s-0.1-0.7,0.1-1.1s0.7-0.6,1.3-0.8
			c0.7-0.2,1.3-0.1,1.7,0.1c0.4,0.2,0.7,0.5,0.7,0.9s0,0.8-0.3,1.2C62.1,60.2,61.7,60.4,61.1,60.6z M60.1,83.7c0-2.3,0-4.4-0.1-6.3
			s-0.1-3.5-0.2-5.1c-0.1-1.5-0.2-3-0.2-4.3c-0.1-1.3-0.1-2.6-0.1-3.8c0-0.4,0.2-0.7,0.5-0.9s0.6-0.3,1-0.3s0.7,0.1,1,0.3
			s0.5,0.5,0.5,0.8c0.1,1.4,0.2,2.9,0.3,4.6s0.2,3.3,0.3,5s0.2,3.3,0.3,4.9s0.2,3,0.3,4.3c0,0.6-0.1,1-0.5,1.2s-0.8,0.4-1.2,0.4
			s-0.9-0.1-1.2-0.2C60.3,84.1,60.1,83.9,60.1,83.7z"/>
		<path class="st0" d="M69.2,96.9c-0.3-0.1-0.4-0.3-0.5-0.7s0-0.8,0.1-1.2c0.1-0.4,0.3-0.7,0.5-1s0.5-0.3,0.8-0.1
			c0.6,0.2,1.3,0.3,2,0.5c0.7,0.1,1.3,0.2,1.9,0.3c0.6,0.1,1.2,0,1.8,0c0.6-0.1,1.1-0.2,1.6-0.5c0.7-0.4,1.3-1,1.7-1.9
			c0.4-0.8,0.8-1.8,1-2.9s0.4-2.3,0.4-3.6c0-1.3,0-2.6,0-4c-0.1-1.3-0.1-2.6-0.3-3.8c-0.1-1.2-0.2-2.4-0.4-3.4
			c-0.2,0.6-0.5,1.2-0.9,2s-0.8,1.5-1.2,2.3c-0.5,0.8-0.9,1.5-1.5,2.2s-1,1.3-1.6,1.7c-1.1,0.9-2.1,1.4-3,1.5s-1.7-0.1-2.4-0.6
			c-0.8-0.6-1.2-1.5-1.5-2.7c-0.2-1.2-0.1-2.6,0.4-4.1c0.6-1.8,1.3-3.5,2.2-5.2s1.9-3.2,2.9-4.5c1.1-1.3,2.1-2.3,3.2-3
			s2-0.9,2.9-0.7c0.3,0.1,0.6,0.2,1,0.4c0.3,0.2,0.6,0.5,0.9,0.9s0.5,1,0.7,1.7s0.3,1.6,0.3,2.6l0.8,9.3c0.3,3.5,0.3,6.4,0.2,8.6
			c-0.1,2.2-0.4,4-0.8,5.4s-0.9,2.4-1.6,3s-1.4,1.1-2.3,1.5c-1.3,0.5-2.8,0.8-4.4,0.7C72.7,97.8,71,97.5,69.2,96.9z M78.8,66.4
			c-0.3-0.2-0.7,0-1.3,0.7c-0.6,0.6-1.3,1.4-2,2.4s-1.4,2.2-2.1,3.4c-0.7,1.3-1.3,2.5-1.8,3.6s-0.8,2.1-0.9,3
			c-0.1,0.8,0.1,1.4,0.5,1.6c0.5,0.2,1.1,0,1.7-0.6c0.7-0.6,1.4-1.4,2.1-2.4s1.4-2.1,2-3.4s1.1-2.5,1.6-3.6c0.4-1.1,0.6-2.2,0.7-3
			C79.4,67.2,79.2,66.6,78.8,66.4z"/>
		<path class="st0" d="M100.1,83.4c0.1-2,0.1-4,0-6s-0.3-3.8-0.5-5.5c-0.3-1.6-0.6-2.9-1-4c-0.4-1-0.9-1.5-1.5-1.4
			c-0.4,0-0.8,0.5-1.3,1.3s-1,2-1.5,3.5s-1,3.3-1.5,5.4s-0.8,4.4-1.2,6.9c-0.1,0.4-0.3,0.7-0.7,0.8c-0.4,0.2-0.8,0.2-1.3,0.1
			s-0.9-0.2-1.3-0.5s-0.5-0.6-0.5-1.1c0.1-0.5,0.2-1.3,0.3-2.3c0.1-1,0.1-2.1,0.1-3.4c0-1.2,0-2.5,0-3.8s0-2.5,0-3.6s-0.1-2-0.1-2.8
			c-0.1-0.8-0.1-1.2-0.2-1.4c-0.1-0.4,0.1-0.7,0.4-0.9c0.3-0.2,0.7-0.3,1.1-0.4c0.4,0,0.8,0.1,1.1,0.2c0.4,0.2,0.5,0.5,0.6,0.9
			c0,0.5,0,1,0,1.4s0,0.8,0,1.3c0,0.4,0,0.9,0,1.4s0,1.1,0.1,1.8c0.2-0.6,0.4-1.3,0.7-2.2c0.3-0.9,0.6-1.8,1-2.7
			c0.4-0.9,1-1.6,1.7-2.3c0.7-0.6,1.6-1,2.7-0.9c0.4,0,0.9,0.1,1.3,0.3s0.9,0.5,1.3,1s0.8,1.2,1.2,2.1c0.4,0.9,0.7,2.1,1,3.5
			s0.6,3.2,0.8,5.3s0.5,4.5,0.7,7.3c0,0.5-0.2,0.8-0.6,1.1c-0.4,0.2-0.8,0.4-1.2,0.4c-0.4,0-0.8,0-1.2-0.2
			C100.3,84,100.1,83.8,100.1,83.4z"/>
		<path class="st0" d="M126.8,82.5c0.5-0.4,1.1-0.9,1.8-1.5c0.7-0.6,1.3-1.3,1.9-2c0.6-0.7,1-1.3,1.3-1.9s0.4-1,0.1-1.2
			c-0.2-0.1-0.6-0.1-1.1-0.1s-1.2,0.1-1.9,0.2s-1.5,0.2-2.3,0.3c-0.8,0.1-1.6,0.1-2.4,0.1s-1.4-0.2-2-0.4c-0.6-0.2-1-0.6-1.2-1.1
			c-0.1-0.3-0.2-0.6-0.3-1s0-0.8,0-1.3c0.1-0.5,0.2-1,0.5-1.6c0.2-0.6,0.6-1.1,1.1-1.7c0.7-0.9,1.5-1.7,2.5-2.5
			c0.9-0.8,1.9-1.4,2.9-2c1-0.5,2-1,3.1-1.3c1-0.3,2.1-0.4,3.1-0.4c0.6,0,1.1,0.2,1.4,0.5s0.5,0.7,0.5,1.1s-0.1,0.7-0.3,1
			s-0.6,0.4-1.2,0.4c-0.9-0.1-1.9,0-2.8,0.4c-1,0.3-1.8,0.7-2.7,1.3c-0.8,0.5-1.6,1.1-2.3,1.7s-1.2,1.2-1.6,1.7s-0.6,1-0.7,1.4
			s0.1,0.6,0.5,0.6c0.8,0.1,1.6,0,2.7-0.2c1-0.2,2-0.3,3.1-0.5c1-0.1,2-0.2,2.9-0.1s1.6,0.4,2.2,0.9c0.4,0.4,0.6,0.9,0.5,1.5
			c0,0.6-0.2,1.3-0.5,2s-0.8,1.5-1.3,2.3s-1.1,1.5-1.7,2.2c-0.6,0.7-1.1,1.3-1.7,1.9c-0.6,0.5-1,0.9-1.4,1.2
			c-0.2,0.3-0.5,0.5-0.9,0.4c-0.4,0-0.8-0.2-1.1-0.4c-0.3-0.3-0.6-0.6-0.7-0.9C126.4,83.1,126.5,82.8,126.8,82.5z"/>
		<path class="st0" d="M143,70.8c-0.1,0-0.3,0-0.5,0s-0.5,0.1-1,0.1c-0.4,0.1-1.1,0.2-1.9,0.3c-0.4,0.1-0.6-0.1-0.8-0.3
			c-0.2-0.3-0.3-0.6-0.4-1c0-0.4,0-0.7,0.1-1.1s0.2-0.6,0.4-0.7l3.9-0.8l-0.1-9.3c-0.1-0.4,0.1-0.7,0.4-0.9c0.3-0.2,0.7-0.3,1-0.3
			s0.7,0.1,1,0.3s0.4,0.5,0.4,0.9s0,1,0,1.8s0,1.7,0.1,2.6c0,0.9,0.1,1.8,0.1,2.6c0,0.8,0,1.4,0,1.8l6.1-0.9c0.4,0,0.7,0.1,0.9,0.4
			s0.3,0.6,0.4,1c0,0.4,0,0.7-0.1,1s-0.3,0.5-0.6,0.6l-6.4,1.2c0,3.1,0.1,5.7,0.3,7.8c0.2,2.1,0.2,3.8,0.2,5.1
			c-0.1,0.5-0.3,0.8-0.7,1s-0.7,0.2-1.1,0.1c-0.4-0.1-0.7-0.3-1.1-0.5c-0.3-0.3-0.4-0.5-0.4-0.8c0-0.8-0.1-1.7-0.1-2.7
			c0-1.1-0.1-2.1-0.1-3.3c0-1.1,0-2.2-0.1-3.3C143,72.6,143,71.6,143,70.8z"/>
		<path class="st0" d="M167.4,79.5c-0.2,0.7-0.5,1.3-0.8,1.9c-0.4,0.6-0.8,1.1-1.2,1.5s-0.8,0.8-1.3,1c-0.4,0.2-0.8,0.4-1.2,0.4
			c-1,0.1-1.9,0-2.7-0.6c-0.8-0.5-1.4-1.5-1.8-2.9c-0.4-1.4-0.7-3.4-0.8-5.9s0.1-5.7,0.5-9.5c-0.1-0.4,0.1-0.6,0.4-0.8
			c0.3-0.2,0.7-0.3,1.1-0.3c0.4,0,0.8,0.1,1.1,0.4s0.5,0.6,0.5,1.2c-0.5,4.6-0.7,8.2-0.5,10.8c0.2,2.6,0.8,4,1.7,4
			c0.1,0,0.4,0,0.7-0.1s0.6-0.3,1-0.7c0.4-0.4,0.7-0.9,1.1-1.6c0.4-0.7,0.7-1.7,0.9-2.9c0.3-1.2,0.5-2.7,0.6-4.6s0.1-4,0-6.6
			c0-0.3,0.1-0.5,0.4-0.7c0.3-0.1,0.6-0.2,1-0.1c0.4,0,0.7,0.1,1,0.3s0.5,0.4,0.5,0.6l0.9,19.6c0,0.4-0.1,0.7-0.4,0.9
			s-0.6,0.3-1,0.3s-0.7,0-1-0.1s-0.5-0.3-0.6-0.6L167.4,79.5z"/>
		<path class="st0" d="M187.2,75.7c-0.2,0.6-0.5,1.3-0.8,2s-0.7,1.5-1.2,2.2s-1,1.4-1.6,2s-1.2,1.1-1.9,1.5s-1.4,0.6-2.1,0.7
			s-1.5-0.1-2.3-0.5c-0.9-0.5-1.5-1.3-1.8-2.3s-0.4-2.1-0.3-3.3c0.1-1.2,0.4-2.3,0.8-3.5c0.4-1.2,0.8-2.1,1.3-2.8
			c0.5-0.9,1.2-1.7,1.9-2.5s1.5-1.4,2.3-2s1.6-0.9,2.4-1.2c0.8-0.2,1.5-0.3,2.2-0.1l-0.4-8.4c0.1-0.2,0.3-0.3,0.6-0.4
			c0.3-0.1,0.7-0.2,1.1-0.2c0.4,0,0.7,0.1,1.1,0.2c0.3,0.2,0.5,0.4,0.6,0.9c0.1,3.1,0.3,6.9,0.6,11.3c0.4,4.4,0.9,9.1,1.7,14.2
			c-0.1,0.3-0.4,0.6-0.7,0.7c-0.4,0.1-0.7,0.2-1.1,0.2c-0.4,0-0.7,0-1-0.1s-0.5-0.2-0.5-0.3L187.2,75.7z M185.4,69.9
			c-0.4-0.5-1-0.7-1.7-0.4c-0.7,0.3-1.4,0.8-2.1,1.5s-1.3,1.6-1.9,2.7c-0.6,1.1-1.1,2.1-1.4,3.1c-0.3,1-0.5,1.9-0.5,2.7
			c0,0.8,0.4,1.3,1,1.6c0.5,0.2,1.1,0.2,1.7-0.2c0.6-0.4,1.2-0.9,1.8-1.6s1.1-1.5,1.6-2.5c0.5-0.9,0.9-1.9,1.2-2.8s0.5-1.7,0.6-2.5
			C185.8,70.8,185.7,70.2,185.4,69.9z"/>
		<path class="st0" d="M196.9,60.6c-0.6,0.1-1.1,0.1-1.5-0.1s-0.7-0.5-0.8-0.9s-0.1-0.7,0.1-1.1c0.2-0.4,0.7-0.6,1.3-0.8
			c0.7-0.2,1.3-0.1,1.7,0.1s0.7,0.5,0.7,0.9c0.1,0.4,0,0.8-0.3,1.2C198,60.2,197.6,60.4,196.9,60.6z M195.9,83.7
			c0-2.3,0-4.4-0.1-6.3s-0.1-3.5-0.2-5.1c-0.1-1.5-0.2-3-0.2-4.3c-0.1-1.3-0.1-2.6-0.1-3.8c0-0.4,0.2-0.7,0.5-0.9s0.6-0.3,1-0.3
			s0.7,0.1,1,0.3s0.5,0.5,0.5,0.8c0.1,1.4,0.2,2.9,0.3,4.6s0.2,3.3,0.3,5s0.2,3.3,0.3,4.9s0.2,3,0.3,4.3c0,0.6-0.1,1-0.5,1.2
			s-0.8,0.4-1.2,0.4s-0.9-0.1-1.2-0.2C196.1,84.1,195.9,83.9,195.9,83.7z"/>
		<path class="st0" d="M204.8,69.1c0.3-1.1,0.8-2.2,1.5-3.3c0.6-1,1.5-1.9,2.5-2.6c0.4-0.3,0.8-0.4,1.2-0.5s0.7,0,0.9,0
			c0.3,0.1,0.5,0.2,0.6,0.3c0.1,0.2,0.2,0.3,0.2,0.4c1.2,0,2.2,0.2,3.1,0.7c0.9,0.4,1.6,1,2.1,1.8c0.6,0.8,1,1.7,1.2,2.7
			s0.4,2.2,0.4,3.5c0,1.5-0.2,2.9-0.4,4.3c-0.3,1.4-0.7,2.7-1.3,3.8c-0.6,1.1-1.3,2.1-2.2,2.8c-0.9,0.7-2,1.1-3.2,1.1
			c-1,0-2-0.2-2.8-0.7s-1.5-1.1-2.1-1.9s-1-1.7-1.4-2.8c-0.4-1-0.6-2.1-0.7-3.3c-0.1-1.1-0.2-2.3-0.1-3.4
			C204.3,71.2,204.5,70.1,204.8,69.1z M211.3,66.5c-1,0-1.7,0.4-2.3,1.1s-1,1.6-1.3,2.8c-0.3,1.1-0.4,2.3-0.4,3.6
			c0,1.3,0.2,2.5,0.5,3.6s0.7,2,1.3,2.8c0.5,0.8,1.2,1.1,1.9,1.1c0.8,0,1.5-0.3,2-0.9c0.6-0.6,1-1.4,1.4-2.4s0.6-2,0.8-3.2
			c0.2-1.1,0.2-2.2,0.2-3.2c-0.1-1.7-0.4-3-1.1-3.9C213.7,66.9,212.7,66.5,211.3,66.5z"/>
	</g>
</g>
<g>
	<path d="M16.9,0c11.2,0,20.2,3.5,20.2,15.6c0,12-9,15.6-20.2,15.6H7.7v16.2H0V0H16.9z M17.3,7H7.7v17h9.6c6.5,0,12-1.6,12-8.5
		S23.9,7,17.3,7z"/>
	<path d="M52.1,47.3V0H71c8.9,0,18.2,3.5,18.2,14.8c0,8.5-5.3,12.5-11.5,14l15.2,18.5h-9.3L69.4,29.6h-9.6v17.7
		C59.8,47.3,52.1,47.3,52.1,47.3z M59.8,22.8h11.6c5.1,0,10-1.8,10-7.8c0-6.1-4.9-7.9-10-7.9H59.8V22.8z"/>
	<path d="M114.5,0v47.3h-7.7V0H114.5z"/>
	<path d="M133.3,47.3V0h7.2L166,34.6c-0.1-1.6-0.1-3.4-0.1-5.2V0h7.7v47.3h-7.2l-25.5-34.6c0.1,1.6,0.1,3.4,0.1,5.1v29.5
		C141,47.3,133.3,47.3,133.3,47.3z"/>
	<path d="M226.7,0v7.1h-15.6v40.2h-7.7V7.1h-15.7V0H226.7z"/>
</g>
</svg>
