<svg width="28" height="22" viewBox="0 0 28 22" fill="none" xmlns="http://www.w3.org/2000/svg">
<path d="M26.25 21.5H1.75001C0.783473 21.5 0 20.7165 0 19.75C0 18.7835 0.783473 18 1.75001 18H26.25C27.2165 18 28.0001 18.7835 28.0001 19.75C28 20.7165 27.2165 21.5 26.25 21.5Z" fill="#717579"/>
<path d="M26.25 12.75H1.75001C0.783473 12.75 0 11.9665 0 11C0 10.0335 0.783473 9.25 1.75001 9.25H26.25C27.2165 9.25 28.0001 10.0335 28.0001 11C28.0001 11.9666 27.2165 12.75 26.25 12.75Z" fill="#717579"/>
<path d="M26.25 3.99996H1.75001C0.783473 3.99996 0 3.21649 0 2.24995C0 1.28341 0.783473 0.499939 1.75001 0.499939H26.25C27.2165 0.499939 28.0001 1.28341 28.0001 2.24995C28.0001 3.21649 27.2165 3.99996 26.25 3.99996Z" fill="#717579"/>
</svg>
